# Blender v2.79 (sub 0) OBJ File: ''
# www.blender.org
mtllib model.mtl
o Plane
v 1.000000 0.000000 -1.000000
v -1.000000 0.000000 -1.000000
v 1.000000 0.000000 1.000000
v -1.000000 0.000000 1.000000
v 1.000000 0.000000 0.000000
v 0.000000 0.000000 -1.000000
v -1.000000 0.000000 0.000000
v 0.000000 0.000000 1.000000
v 0.000000 0.000000 0.000000
v 1.000000 0.000000 -0.500000
v -0.500000 0.000000 -1.000000
v -1.000000 0.000000 0.500000
v 0.500000 0.000000 1.000000
v 1.000000 0.000000 0.500000
v 0.500000 0.000000 -1.000000
v -1.000000 0.000000 -0.500000
v -0.500000 0.000000 1.000000
v 0.000000 0.000000 0.500000
v 0.000000 0.000000 -0.500000
v 0.500000 0.000000 0.000000
v -0.500000 0.000000 0.000000
v -0.500000 0.000000 -0.500000
v 0.500000 0.000000 -0.500000
v 0.500000 0.000000 0.500000
v -0.500000 0.000000 0.500000
vn 0.0000 1.0000 0.0000
usemtl None
s off
f 12//1 17//1 25//1
f 20//1 18//1 24//1
f 6//1 23//1 15//1
f 7//1 22//1 16//1
f 2//1 22//1 11//1
f 22//1 21//1 19//1
f 15//1 10//1 1//1
f 21//1 12//1 25//1
f 24//1 3//1 14//1
f 8//1 25//1 17//1
f 11//1 19//1 6//1
f 24//1 5//1 20//1
f 10//1 20//1 5//1
f 13//1 18//1 8//1
f 12//1 4//1 17//1
f 6//1 19//1 23//1
f 7//1 21//1 22//1
f 2//1 16//1 22//1
f 15//1 23//1 10//1
f 21//1 7//1 12//1
f 24//1 13//1 3//1
f 8//1 18//1 25//1
f 11//1 22//1 19//1
f 24//1 14//1 5//1
f 10//1 23//1 20//1
f 13//1 24//1 18//1
