# Blender v2.79 (sub 4) OBJ File: ''
# www.blender.org
mtllib model.mtl
o Cube
v 1.000000 0.725000 -1.000000
v 1.000000 -1.000000 1.000000
v -1.000000 -1.000000 1.000000
v 1.000000 0.900000 -1.000000
v 0.999999 1.000000 -0.999999
v 0.999999 1.000000 1.000001
v -1.000000 1.000000 1.000000
v 1.000000 -1.000000 -1.000000
v -1.000000 0.825000 1.000000
v 1.000000 0.900000 1.000000
v 1.000000 0.725000 1.000000
v 1.000000 0.750000 1.000000
v 1.000000 0.875000 1.000000
v 1.000000 0.825000 1.000000
v 1.000000 0.800000 1.000000
v -1.000000 0.875000 1.000000
v -1.000000 0.750000 1.000000
v -1.000000 0.725000 1.000000
v -1.000000 0.900000 1.000000
v 1.000000 0.675000 1.000000
v -1.000000 0.800000 1.000000
v -1.000000 0.675000 1.000000
v 1.000000 0.235480 1.000000
v -1.000000 0.235480 1.000000
v 1.000000 0.750000 -1.000000
v 1.000000 0.875000 -1.000000
v 1.000000 0.825000 -1.000000
v 1.000000 0.800000 -1.000000
v 1.000000 0.675000 -1.000000
v 1.000000 0.235480 -1.000000
v -1.000000 0.725000 -1.000000
v -1.000000 0.900000 -1.000000
v -1.000000 1.000000 -0.999999
v -1.000000 -1.000000 -1.000000
v -1.000000 0.750000 -1.000000
v -1.000000 0.875000 -1.000000
v -1.000000 0.825000 -1.000000
v -1.000000 0.800000 -1.000000
v -1.000000 0.675000 -1.000000
v -1.000000 0.235480 -1.000000
vt 0.015154 0.519755
vt 0.985633 0.502815
vt 0.985705 0.519755
vt 0.983889 0.579217
vt 0.535643 0.550354
vt 0.983889 0.550354
vt 0.535643 0.579218
vt 0.983889 0.550355
vt 0.983889 0.579216
vt 0.015155 0.519765
vt 0.985632 0.502806
vt 0.985704 0.519745
vt 0.535643 0.579217
vt 0.983889 0.550355
vt 0.983889 0.579217
vt 0.985632 0.519755
vt 0.015155 0.502815
vt 0.985716 0.502815
vt 0.516831 0.578869
vt 0.018325 0.553944
vt 0.516831 0.553944
vt 0.019828 0.231060
vt 0.979959 0.020062
vt 0.979959 0.231060
vt 0.628233 0.604865
vt 0.017633 0.982057
vt 0.017633 0.604865
vt 0.015154 0.502815
vt 0.985633 0.519755
vt 0.015071 0.519755
vt 0.535643 0.550354
vt 0.983889 0.579216
vt 0.535643 0.579217
vt 0.025129 0.259016
vt 0.971768 0.467049
vt 0.025129 0.467049
vt 0.015155 0.502815
vt 0.985632 0.519755
vt 0.015071 0.519755
vt 0.535643 0.549420
vt 0.983889 0.578283
vt 0.535643 0.578283
vt 0.017633 0.604865
vt 0.628233 0.982057
vt 0.017633 0.982057
vt 0.535643 0.550354
vt 0.983889 0.579217
vt 0.535643 0.579217
vt 0.015154 0.502815
vt 0.985633 0.519755
vt 0.015071 0.519755
vt 0.018326 0.553944
vt 0.516830 0.578869
vt 0.018326 0.578869
vt 0.985717 0.502814
vt 0.015070 0.519756
vt 0.015154 0.502817
vt 0.983888 0.579217
vt 0.535642 0.550355
vt 0.983888 0.550355
vt 0.516831 0.578869
vt 0.018325 0.553944
vt 0.516831 0.553944
vt 0.985633 0.519755
vt 0.015155 0.502815
vt 0.985716 0.502815
vt 0.983890 0.579217
vt 0.535643 0.550355
vt 0.983890 0.550355
vt 0.025129 0.259015
vt 0.971768 0.467049
vt 0.025129 0.467049
vt 0.985633 0.519755
vt 0.015155 0.502815
vt 0.985716 0.502815
vt 0.017633 0.982057
vt 0.628233 0.604865
vt 0.628233 0.982057
vt 0.983889 0.579217
vt 0.535643 0.550355
vt 0.983889 0.550354
vt 0.985633 0.502815
vt 0.015154 0.519755
vt 0.015082 0.502815
vt 0.516830 0.553944
vt 0.018326 0.578869
vt 0.018327 0.553943
vt 0.983889 0.550354
vt 0.535643 0.579217
vt 0.535643 0.550355
vt 0.015154 0.502815
vt 0.985633 0.519755
vt 0.015070 0.519755
vt 0.535643 0.550355
vt 0.983889 0.579216
vt 0.535643 0.579217
vt 0.015154 0.502815
vt 0.985633 0.519755
vt 0.015070 0.519755
vt 0.535643 0.550354
vt 0.983889 0.579216
vt 0.535643 0.579217
vt 0.025129 0.467049
vt 0.971768 0.259015
vt 0.971768 0.467049
vt 0.017633 0.982057
vt 0.628233 0.604865
vt 0.628233 0.982057
vt 0.651206 0.622946
vt 0.983544 0.955283
vt 0.651206 0.955283
vt 0.651206 0.622946
vt 0.983544 0.955283
vt 0.651206 0.955283
vt 0.015082 0.502815
vt 0.535643 0.579216
vt 0.535643 0.550355
vt 0.015083 0.502825
vt 0.535643 0.550354
vt 0.015071 0.519755
vt 0.018325 0.578869
vt 0.019828 0.020062
vt 0.628233 0.982057
vt 0.985717 0.502815
vt 0.983889 0.550354
vt 0.971768 0.259015
vt 0.985716 0.502815
vt 0.983889 0.549421
vt 0.628233 0.604865
vt 0.983889 0.550355
vt 0.985717 0.502815
vt 0.516830 0.553944
vt 0.985633 0.519754
vt 0.535642 0.579216
vt 0.018325 0.578869
vt 0.015071 0.519755
vt 0.535643 0.579216
vt 0.971768 0.259015
vt 0.015071 0.519755
vt 0.017633 0.604865
vt 0.535643 0.579217
vt 0.985705 0.519755
vt 0.516830 0.578869
vt 0.983889 0.579217
vt 0.985717 0.502815
vt 0.983889 0.550355
vt 0.985717 0.502815
vt 0.983889 0.550354
vt 0.025129 0.259015
vt 0.017633 0.604865
vt 0.983544 0.622946
vt 0.983544 0.622946
vn 0.0000 0.0000 1.0000
vn 1.0000 0.0000 0.0000
vn 0.0000 0.0000 -1.0000
vn -1.0000 -0.0000 -0.0000
vn 0.0000 1.0000 0.0000
vn 0.0000 -1.0000 0.0000
usemtl Material
s off
f 9/1/1 15/2/1 14/3/1
f 13/4/1 9/5/1 14/6/1
f 21/7/1 12/8/1 15/9/1
f 17/10/1 11/11/1 12/12/1
f 18/13/1 20/14/1 11/15/1
f 10/16/1 16/17/1 13/18/1
f 6/19/1 19/20/1 10/21/1
f 22/22/1 23/23/1 20/24/1
f 2/25/1 24/26/1 3/27/1
f 11/28/2 25/29/2 12/30/2
f 20/31/2 1/32/2 11/33/2
f 23/34/2 29/35/2 20/36/2
f 13/37/2 4/38/2 10/39/2
f 12/40/2 28/41/2 15/42/2
f 2/43/2 30/44/2 23/45/2
f 14/46/2 26/47/2 13/48/2
f 15/49/2 27/50/2 14/51/2
f 10/52/2 5/53/2 6/54/2
f 4/55/3 36/56/3 32/57/3
f 29/58/3 31/59/3 1/60/3
f 4/61/3 33/62/3 5/63/3
f 28/64/3 37/65/3 27/66/3
f 27/67/3 36/68/3 26/69/3
f 30/70/3 39/71/3 29/72/3
f 1/73/3 35/74/3 25/75/3
f 30/76/3 34/77/3 40/78/3
f 25/79/3 38/80/3 28/81/3
f 32/82/4 16/83/4 19/84/4
f 33/85/4 19/86/4 7/87/4
f 36/88/4 9/89/4 16/90/4
f 9/91/4 38/92/4 21/93/4
f 21/94/4 35/95/4 17/96/4
f 17/97/4 31/98/4 18/99/4
f 18/100/4 39/101/4 22/102/4
f 39/103/4 24/104/4 22/105/4
f 40/106/4 3/107/4 24/108/4
f 5/109/5 7/110/5 6/111/5
f 34/112/6 2/113/6 3/114/6
f 9/1/1 21/115/1 15/2/1
f 13/4/1 16/116/1 9/5/1
f 21/7/1 17/117/1 12/8/1
f 17/10/1 18/118/1 11/11/1
f 18/13/1 22/119/1 20/14/1
f 10/16/1 19/120/1 16/17/1
f 6/19/1 7/121/1 19/20/1
f 22/22/1 24/122/1 23/23/1
f 2/25/1 23/123/1 24/26/1
f 11/28/2 1/124/2 25/29/2
f 20/31/2 29/125/2 1/32/2
f 23/34/2 30/126/2 29/35/2
f 13/37/2 26/127/2 4/38/2
f 12/40/2 25/128/2 28/41/2
f 2/43/2 8/129/2 30/44/2
f 14/46/2 27/130/2 26/47/2
f 15/49/2 28/131/2 27/50/2
f 10/52/2 4/132/2 5/53/2
f 4/55/3 26/133/3 36/56/3
f 29/58/3 39/134/3 31/59/3
f 4/61/3 32/135/3 33/62/3
f 28/64/3 38/136/3 37/65/3
f 27/67/3 37/137/3 36/68/3
f 30/70/3 40/138/3 39/71/3
f 1/73/3 31/139/3 35/74/3
f 30/76/3 8/140/3 34/77/3
f 25/79/3 35/141/3 38/80/3
f 32/82/4 36/142/4 16/83/4
f 33/85/4 32/143/4 19/86/4
f 36/88/4 37/144/4 9/89/4
f 9/91/4 37/145/4 38/92/4
f 21/94/4 38/146/4 35/95/4
f 17/97/4 35/147/4 31/98/4
f 18/100/4 31/148/4 39/101/4
f 39/103/4 40/149/4 24/104/4
f 40/106/4 34/150/4 3/107/4
f 5/109/5 33/151/5 7/110/5
f 34/112/6 8/152/6 2/113/6
